<svg width="17" height="17" viewBox="0 0 17 17" fill="none" xmlns="http://www.w3.org/2000/svg">
<path d="M3 4C3 2.93913 3.42143 1.92172 4.17157 1.17157C4.92172 0.421427 5.93913 0 7 0C8.06087 0 9.07828 0.421427 9.82843 1.17157C10.5786 1.92172 11 2.93913 11 4C11 5.06087 10.5786 6.07828 9.82843 6.82843C9.07828 7.57857 8.06087 8 7 8C5.93913 8 4.92172 7.57857 4.17157 6.82843C3.42143 6.07828 3 5.06087 3 4V4ZM7 1C6.20435 1 5.44129 1.31607 4.87868 1.87868C4.31607 2.44129 4 3.20435 4 4C4 4.79565 4.31607 5.55871 4.87868 6.12132C5.44129 6.68393 6.20435 7 7 7C7.79565 7 8.55871 6.68393 9.12132 6.12132C9.68393 5.55871 10 4.79565 10 4C10 3.20435 9.68393 2.44129 9.12132 1.87868C8.55871 1.31607 7.79565 1 7 1ZM0 11C0 9.887 0.903 9 2.009 9H12C12.2801 8.99978 12.557 9.05838 12.813 9.172C12.7014 9.61379 12.7365 10.0799 12.913 10.5H12.866C12.7782 10.348 12.652 10.2217 12.5 10.134C12.348 10.0462 12.1755 10 12 10H2.009C1.448 10 1 10.447 1 11C1 12.309 1.622 13.284 2.673 13.953C3.743 14.636 5.265 15 7 15C7.962 15 8.858 14.888 9.648 14.672C9.51398 15.0093 9.46988 15.3756 9.52 15.735C8.731 15.913 7.88 16 7 16C5.145 16 3.417 15.614 2.135 14.797C0.833 13.967 0 12.69 0 11ZM13.835 9.265L14.234 8.324C14.421 7.882 14.869 7.642 15.309 7.734L15.403 7.758L15.903 7.918C16.399 8.077 16.778 8.501 16.901 9.034C17.192 10.301 16.843 11.844 15.852 13.662C14.863 15.478 13.78 16.569 12.601 16.937C12.143 17.08 11.651 16.977 11.281 16.666L11.184 16.576L10.804 16.195C10.6444 16.0307 10.5412 15.8197 10.5096 15.5928C10.4779 15.3659 10.5194 15.1348 10.628 14.933L10.684 14.841L11.256 14.001C11.36 13.8424 11.5092 13.7187 11.6842 13.6458C11.8593 13.5729 12.0522 13.5541 12.238 13.592L12.338 13.619L13.395 13.972C13.816 13.652 14.168 13.252 14.449 12.767C14.69 12.352 14.849 11.932 14.922 11.506L14.952 11.292L14.073 10.457C13.9311 10.3187 13.8303 10.1439 13.7816 9.95193C13.7328 9.75991 13.7382 9.55817 13.797 9.369L13.834 9.265H13.835Z" fill="white"/>
</svg>
