<svg width="36" height="36" viewBox="0 0 36 36" fill="none" xmlns="http://www.w3.org/2000/svg">
<rect width="36" height="36" rx="8" fill="#6876FE"/>
<path d="M8 16.8281V18.0781C13 25.5781 23 25.5781 28 18.0781V16.8281C23 9.32812 13 9.32812 8 16.8281ZM18 22.4531C15.2383 22.4531 13 20.2148 13 17.4531C13 14.6914 15.2383 12.4531 18 12.4531C20.7617 12.4531 23 14.6914 23 17.4531C23 20.2148 20.7617 22.4531 18 22.4531ZM18 14.6406C18 14.3164 18.0664 14.0117 18.168 13.7187C18.1094 13.7148 18.0586 13.7031 18 13.7031C15.9297 13.7031 14.25 15.3828 14.25 17.4531C14.25 19.5234 15.9297 21.2031 18 21.2031C20.0703 21.2031 21.75 19.5234 21.75 17.4531C21.75 17.3945 21.7344 17.3438 21.7344 17.2852C21.4453 17.3867 21.1367 17.4531 20.8125 17.4531C19.2578 17.4531 18 16.1953 18 14.6406Z" fill="white"/>
</svg>
