<svg width="10" height="10" viewBox="0 0 10 10" fill="none" xmlns="http://www.w3.org/2000/svg">
<g opacity="0.8">
<path d="M0 5.03046C0.000281616 6.22112 0.425235 7.37263 1.19848 8.27804C1.97173 9.18344 3.04256 9.78336 4.2185 9.96996V6.47546H2.95V5.03046H4.22V3.93046C4.19196 3.673 4.22095 3.41253 4.30491 3.16754C4.38887 2.92255 4.52575 2.69906 4.70582 2.51292C4.88589 2.32679 5.10473 2.1826 5.34681 2.09057C5.58889 1.99855 5.84826 1.96095 6.1065 1.98046C6.4815 1.98646 6.8565 2.01996 7.2265 2.08046V3.30996H6.5945C6.48709 3.29589 6.37788 3.30614 6.27496 3.33995C6.17204 3.37376 6.07803 3.43027 5.99989 3.50529C5.92174 3.58032 5.86145 3.67195 5.82348 3.77341C5.7855 3.87487 5.77082 3.98356 5.7805 4.09146V5.03046H7.166L6.9445 6.47596H5.7805V9.96996C6.72431 9.8208 7.60562 9.40433 8.32008 8.76984C9.03454 8.13536 9.55224 7.30944 9.81188 6.38987C10.0715 5.4703 10.0622 4.49558 9.78509 3.58113C9.50797 2.66667 8.97462 1.85077 8.24819 1.23003C7.52175 0.609287 6.63267 0.209694 5.68618 0.0785614C4.7397 -0.0525713 3.77546 0.0902482 2.90763 0.490111C2.03979 0.889973 1.30471 1.53013 0.789402 2.3348C0.274097 3.13946 0.000151685 4.07493 0 5.03046Z" fill="white"/>
</g>
</svg>
