<svg width="16" height="16" viewBox="0 0 16 16" fill="none" xmlns="http://www.w3.org/2000/svg">
<circle cx="8" cy="8" r="7" fill="#292D4A" stroke="#FF8561" stroke-width="0.5"/>
<path d="M12.914 5.98563C12.8563 5.76007 12.7674 5.54369 12.6497 5.34281C12.5367 5.13385 12.3921 4.94353 12.2212 4.77856C11.9733 4.53153 11.6798 4.33504 11.3569 4.20003C10.7071 3.93332 9.97833 3.93332 9.32849 4.20003C9.02334 4.32919 8.74298 4.51045 8.49997 4.73571L8.46425 4.77856L8 5.24282L7.53574 4.77856L7.50003 4.73571C7.25701 4.51045 6.97666 4.32919 6.67151 4.20003C6.02166 3.93332 5.29291 3.93332 4.64307 4.20003C4.32022 4.33504 4.0267 4.53153 3.77883 4.77856C3.43983 5.10842 3.19985 5.52653 3.08602 5.98563C3.02546 6.21877 2.99663 6.45902 3.00031 6.69987C3.00031 6.927 3.02888 7.1527 3.08602 7.37126C3.1459 7.5927 3.23223 7.80613 3.34315 8.00693C3.46294 8.21335 3.60943 8.40307 3.77883 8.57118L8 12.7923L12.2212 8.57118C12.3904 8.40548 12.5354 8.21549 12.6497 8.00693C12.8817 7.61061 13.0026 7.15909 12.9997 6.69987C13.0034 6.45902 12.9746 6.21877 12.914 5.98563Z" fill="#FF865F"/>
</svg>
