<svg width="16" height="16" viewBox="0 0 16 16" fill="none" xmlns="http://www.w3.org/2000/svg">
<circle cx="8" cy="8" r="7" fill="#292D4A" stroke="#755CDD" stroke-width="0.5"/>
<path d="M12.0265 6.3047C11.8074 5.78177 11.4886 5.30647 11.088 4.90528C10.6885 4.5034 10.2141 4.18387 9.69149 3.96485C9.15615 3.7394 8.58096 3.62383 8.00009 3.62501H7.98056C7.38973 3.62794 6.81845 3.74513 6.28036 3.97559C5.76226 4.19686 5.29224 4.51695 4.89657 4.91798C4.49982 5.31826 4.18473 5.7919 3.96884 6.31251C3.74473 6.85388 3.63117 7.43461 3.63485 8.02052C3.63778 8.69825 3.79989 9.3711 4.10263 9.97267V11.457C4.10263 11.7051 4.3038 11.9063 4.55087 11.9063H6.03329C6.63766 12.2112 7.30459 12.3717 7.98153 12.375H8.00204C8.58602 12.375 9.15145 12.2617 9.68466 12.04C10.2046 11.8236 10.6773 11.5078 11.0763 11.1104C11.4786 10.7109 11.795 10.2441 12.0167 9.72364C12.2462 9.18458 12.3634 8.61134 12.3663 8.01954C12.3682 7.42481 12.253 6.84767 12.0265 6.3047ZM6.05087 8.46876C5.79306 8.46876 5.58309 8.2588 5.58309 8.00001C5.58309 7.74122 5.79306 7.53126 6.05087 7.53126C6.30868 7.53126 6.51864 7.74122 6.51864 8.00001C6.51864 8.2588 6.30966 8.46876 6.05087 8.46876ZM8.00009 8.46876C7.74227 8.46876 7.53231 8.2588 7.53231 8.00001C7.53231 7.74122 7.74227 7.53126 8.00009 7.53126C8.2579 7.53126 8.46786 7.74122 8.46786 8.00001C8.46786 8.2588 8.2579 8.46876 8.00009 8.46876ZM9.94931 8.46876C9.69149 8.46876 9.48153 8.2588 9.48153 8.00001C9.48153 7.74122 9.69149 7.53126 9.94931 7.53126C10.2071 7.53126 10.4171 7.74122 10.4171 8.00001C10.4171 8.2588 10.2071 8.46876 9.94931 8.46876Z" fill="#755CDD"/>
</svg>
