<svg width="17" height="14" viewBox="0 0 17 14" fill="none" xmlns="http://www.w3.org/2000/svg">
<path d="M14.5 2.5C14.5 2.5 16 4 16 6.5C16 9 14.5 10.5 14.5 10.5" stroke="white" stroke-linecap="round" stroke-linejoin="round"/>
<path d="M1 8.99934V4.99934C1 4.73412 1.10536 4.47977 1.29289 4.29223C1.48043 4.1047 1.73478 3.99934 2 3.99934H4.697C4.89453 3.99938 5.08765 3.94092 5.252 3.83134L9.445 1.03534C9.59574 0.934765 9.77098 0.877043 9.95198 0.868341C10.133 0.85964 10.313 0.900286 10.4726 0.985936C10.6323 1.07159 10.7658 1.19902 10.8586 1.35462C10.9515 1.51021 11.0004 1.68813 11 1.86934V12.1293C11 12.3104 10.9509 12.488 10.8579 12.6433C10.7648 12.7987 10.6314 12.9258 10.4718 13.0112C10.3121 13.0966 10.1323 13.1371 9.95148 13.1283C9.77065 13.1195 9.5956 13.0618 9.445 12.9613L5.252 10.1663C5.08754 10.0571 4.89443 9.999 4.697 9.99934H2C1.73478 9.99934 1.48043 9.89398 1.29289 9.70645C1.10536 9.51891 1 9.26456 1 8.99934Z" stroke="white"/>
</svg>
